<?xml version="1.0" encoding="UTF-8"?>
<!DOCTYPE svg PUBLIC "-//W3C//DTD SVG 1.1//EN" "http://www.w3.org/Graphics/SVG/1.1/DTD/svg11.dtd">
<!-- Creator: CorelDRAW 2026 -->
<svg xmlns="http://www.w3.org/2000/svg" xml:space="preserve" width="51mm" height="10mm" version="1.1" style="shape-rendering:geometricPrecision; text-rendering:geometricPrecision; image-rendering:optimizeQuality; fill-rule:evenodd; clip-rule:evenodd"
viewBox="0 0 5100 1000"
 xmlns:xlink="http://www.w3.org/1999/xlink"
 xmlns:xodm="http://www.corel.com/coreldraw/odm/2003">
 <defs>
  <style type="text/css">
   <![CDATA[
    .fil1 {fill:#37A772}
    .fil3 {fill:#39A974}
    .fil2 {fill:#949CA7}
    .fil0 {fill:white}
   ]]>
  </style>
 </defs>
 <g id="Layer_x0020_1">
  <metadata id="CorelCorpID_0Corel-Layer"/>
  <g id="_46516687360">
   <g>
    <path class="fil0" d="M1237.67 510.85c32.58,-157.25 250.82,-144.81 275.04,0.74l-275.04 -0.74zm1.08 56.88l296.68 -0.58c40.93,-0.08 51.35,-24.81 31.85,-86.72 -67.34,-213.71 -374.36,-177.43 -393.09,40.38 -14.82,172.14 178.07,279.46 321.48,181.15 75.69,-51.89 24.42,-75.64 11.16,-76.47 -23.85,-1.5 -47.12,38.91 -94.41,49.36 -85.76,18.95 -165.94,-35.69 -173.67,-107.12z"/>
    <path class="fil0" d="M1920.93 426.76c63.84,49.91 72.68,141.26 20.56,202.95 -77.28,91.47 -228.4,52.42 -244.58,-74.45 -16.33,-128.13 128.3,-203.32 224.02,-128.5zm54.43 253.33c-1.02,36.82 17.29,73.17 50.21,46.18 6.95,-5.69 11.42,-18.41 11.19,-33.32l-2.78 -177.67c-0.42,-26.59 -9.18,-51.44 -22.04,-74.07 -49.71,-87.5 -176.86,-146.51 -290.3,-68.84 -158.84,108.76 -89.32,355.44 101.82,366.08 93.4,5.19 126.5,-44.99 151.9,-58.36z"/>
    <path class="fil0" d="M3157.87 732.48c7.32,0.18 11.95,-2.04 17.59,-7.33 4.14,-3.87 8.13,-10.99 8.32,-20.88l3.92 -205.02c2.55,-133.49 189.15,-124.49 190.92,0l2.98 208.7c0.47,32.88 54.15,29.42 53.25,2.41l-0.15 -240.45c-0.12,-178.58 -270.21,-151.82 -276.83,-65.92 -6.63,-85.99 -276.72,-112.74 -276.83,65.84l-0.16 240.45c-0.9,27 52.79,30.47 53.25,-2.41l2.98 -208.71c1.77,-124.49 188.37,-133.48 190.92,0l3.93 205.03c0.19,9.88 4.17,17 8.31,20.88 5.65,5.29 10.27,7.5 17.6,7.41z"/>
    <path class="fil0" d="M2607.05 853.81l215.58 -478.98c6.69,-14.85 1.11,-29.62 -12.7,-36.04 -18.52,-8.59 -35.38,-1.17 -42.95,16.01l-124.58 282.61 -124.21 -273.75c-9.72,-21.44 -26.74,-35.65 -48.94,-25.16 -17.58,8.3 -18.28,27.68 -9.42,47.12l128.16 281.25c14.58,32.87 22.28,40.32 6.7,75.68l-39.41 89.49c-16.26,36.9 36.42,55.86 51.77,21.77z"/>
    <path class="fil0" d="M2275.6 398.22c38.45,7.18 52.91,38.18 61.63,43.98 32.57,21.67 73.88,-25.12 21.2,-68.03 -44.06,-35.89 -103.59,-45.82 -152.82,-30.2 -67.08,21.29 -111.09,94.83 -65.53,158.67 19.31,27.04 55.01,39.84 96.26,53.34 38.14,12.48 89.71,19.61 97.58,55.65 13.89,63.59 -87.22,85.11 -137.28,50.63 -21.93,-15.09 -21.4,-27.37 -35.94,-40.59 -21.72,-19.84 -65.41,-4.18 -42.07,43.85 39.28,80.85 173.04,92.18 238.72,39.88 70.1,-55.82 45.85,-153.88 -35.87,-184.38 -32.57,-12.15 -84.78,-23.09 -113.54,-39.56 -25.33,-14.51 -28.89,-36.25 -18.03,-53.95 16.13,-26.29 57.13,-34.62 85.69,-29.29z"/>
    <path class="fil0" d="M4976.58 430.71c37.65,33.1 74.93,-10.41 38.27,-41.59 -139.1,-118.31 -339.92,-18.43 -333.15,158.13 1.95,50.91 23.44,101.39 66.16,139.7 68.01,61.02 207.09,60.9 270.75,-6.43 27.6,-29.19 1.26,-65.13 -34.23,-38.69 -41.21,30.7 -78.83,42.2 -111.31,40.46 -73.97,-3.98 -130.87,-64.03 -133.86,-135.14 -2.91,-69.37 45.93,-149.89 144.17,-151.05 33.23,-0.4 66.35,11.01 93.2,34.61z"/>
    <path class="fil0" d="M4074.17 399.93l81.49 0.51c16.53,0.11 27.53,-11.13 26.33,-29.54 -1.08,-16.46 -11.69,-26.21 -26.87,-26.16l-81.68 0.31 -2.06 -90.21c-0.49,-21.76 -10.8,-40.45 -28.23,-41.69 -22.63,-1.63 -32.15,20.56 -31.96,40.11l3.34 335.64c0.3,30.42 10.37,56.22 21.41,73.66 43.09,68.04 128.11,88.29 143.67,54.1 21.01,-46.19 -106.33,-7.2 -106.14,-152.92l0.7 -163.81z"/>
    <path class="fil0" d="M4309.47 545.48c0.28,-32.35 5.77,-64.9 22.24,-91 20.26,-32.09 60.26,-56.61 94.49,-70.21 36,-14.31 25.89,-48.84 -6.13,-49.25 -40.89,-0.51 -107.72,47.21 -132.35,77.12 -24.94,30.28 -35.97,64.34 -36.2,102.31l-1.12 187.97c-0.2,32.97 57.37,44.45 57.74,0.56l1.33 -157.5z"/>
    <path class="fil0" d="M4596.81 697.93l1.19 -317.55c0.09,-60.79 -59.71,-56.28 -60.03,-2.18l-1.9 318.72c-0.44,45.01 60.56,48.71 60.74,1.01z"/>
    <path class="fil0" d="M4534.54 260.86c11.28,38.23 80.14,25.41 67.03,-22.82 -10.88,-40.03 -82.66,-30.14 -67.03,22.82z"/>
    <path class="fil0" d="M3582 509.7c32.58,-157.26 250.82,-144.82 275.04,0.74l-275.04 -0.74zm1.07 56.87l296.69 -0.57c40.92,-0.08 51.35,-24.82 31.84,-86.73 -67.33,-213.7 -374.35,-177.42 -393.09,40.39 -14.81,172.14 178.08,279.46 321.48,181.15 75.69,-51.89 24.42,-75.64 11.16,-76.47 -23.84,-1.5 -47.11,38.91 -94.4,49.36 -85.77,18.94 -165.95,-35.7 -173.68,-107.13z"/>
   </g>
   <g>
    <path class="fil1" d="M261.21 909.74c-103.77,-122.17 -151.79,-195.82 -149.84,-356.57 1.38,-113.28 50.74,-227.24 132.88,-309.94 79.61,-80.16 193.16,-132.2 330.37,-135.21 0.43,-42.37 -51.5,-50.92 -100.94,-50.91l-348.32 0.08c-38.98,0 -70.13,8.67 -87.2,43.81 -3.96,8.16 -7.84,23.24 -7.84,41.9l-0.21 666.49c-0.01,38.45 12.56,100.35 60.21,100.35l170.89 0z"/>
    <path class="fil0" d="M378.45 198.21c-250.32,133.02 -324.2,520.31 -24.11,718.36 144.91,95.64 343.13,72.9 471.45,-24.66 71.51,-54.37 120.55,-132.81 146.62,-218.09 14.99,-49.06 5.08,-76.18 -11.34,-77.91 -15.46,-1.63 -27.03,5.65 -44.39,59.04 -13.78,42.33 -32.35,87.73 -63.09,125.77 -71.14,88.03 -184.87,149.65 -330.28,131.36 -158.9,-24.61 -282.21,-149.85 -297.31,-319.22 -14.98,-211.04 154.88,-385.91 361.35,-379.65 40.05,1.21 71.7,9.44 95.59,15.28 37.48,9.16 55.27,3.01 58.15,-10.88 3.37,-16.21 -13.75,-37.96 -47.15,-49.47 -22.07,-7.62 -51.88,-13.79 -79.74,-16.01 -85.37,-6.8 -157.08,4.27 -235.75,46.08z"/>
    <polygon class="fil2" points="470.6,169.01 493.51,162.61 "/>
    <circle class="fil3" cx="790.88" cy="247.77" r="27.97"/>
    <path class="fil0" d="M390.81 401.07c0,11.49 28.12,34.74 37.37,42.52l41.36 39.17c3.91,3.7 6.62,5.12 10.48,9.31 11.8,12.79 65.08,59.07 72.73,68.63l-93.09 87.74c-4.79,3.95 -5.96,4.88 -10.23,9.51 -12.81,13.88 -58.62,47.19 -58.62,62.38 0,14.13 13.45,25.6 30.59,25.6l302.27 0c26.33,0 42.41,-26.15 19.45,-43.38 -7.61,-5.71 -16.25,-6.42 -30.22,-6.34l-224.93 0.02c9.42,-11.76 40.27,-36.73 51.42,-48.82l61.4 -57.03c25.72,-25.75 31.5,-28.34 4.79,-54.32l-117.61 -110.89 221.32 0c20.23,0.07 44.97,-2.71 44.97,-25.6 0,-12.99 -14.57,-24.1 -30.59,-24.1l-302.27 0c-17.14,0 -30.59,11.47 -30.59,25.6z"/>
    <circle class="fil3" cx="855.88" cy="306.66" r="27.97"/>
    <circle class="fil3" cx="906.28" cy="374.59" r="27.97"/>
    <circle class="fil3" cx="940.15" cy="452.52" r="27.97"/>
    <circle class="fil3" cx="957.34" cy="536.58" r="27.97"/>
   </g>
  </g>
 </g>
</svg>
